<?xml version="1.0" encoding="UTF-8"?>
<svg width="1495px" height="1495px" viewBox="0 0 1495 1495" version="1.1" xmlns="http://www.w3.org/2000/svg" xmlns:xlink="http://www.w3.org/1999/xlink">
    <title>Group 7</title>
    <defs>
        <linearGradient x1="100%" y1="50%" x2="0%" y2="50%" id="linearGradient-1">
            <stop stop-color="#1D9DD8" offset="0%"></stop>
            <stop stop-color="#0D73CB" offset="100%"></stop>
        </linearGradient>
    </defs>
    <g id="ICO-FINALI" stroke="none" stroke-width="1" fill="none" fill-rule="evenodd">
        <g id="Group-7">
            <g id="Group-4">
                <circle id="Oval" fill="url(#linearGradient-1)" cx="747.5" cy="747.5" r="747.5"></circle>
                <g id="Group" transform="translate(106.000000, 102.000000)" fill="#000000">
                    <circle id="Oval" cx="646" cy="646" r="646"></circle>
                </g>
            </g>
            <g id="goBTC" transform="translate(105.000000, 99.000000)" fill-rule="nonzero">
                <circle id="Oval" fill="#F7931A" cx="657" cy="641" r="599"></circle>
                <path d="M647.5,1295 C288.241935,1295 0,1002.58065 0,647.5 C0,292.419355 288.241935,0 647.5,0 C1006.75806,0 1295,292.419355 1295,647.5 C1295,1002.58065 1006.75806,1295 647.5,1295 Z M647.5,96.0806452 C342.548387,96.0806452 96.0806452,342.548387 96.0806452,647.5 C96.0806452,952.451613 342.548387,1198.91935 647.5,1198.91935 C952.451613,1198.91935 1198.91935,952.451613 1198.91935,647.5 C1198.91935,342.548387 952.451613,96.0806452 647.5,96.0806452 Z" id="Shape" fill="#1BFED7"></path>
                <path d="M914.39246,560.8 C926.987948,480.486486 864.010507,433.989189 780.040585,404.4 L809.430058,294.497297 L742.25412,277.589189 L717.063144,387.491892 C700.26916,383.264865 679.276679,379.037838 662.482695,374.810811 L687.673671,264.908108 L620.497734,248 L591.108261,357.902703 C578.512773,353.675676 561.718789,349.448649 549.1233,349.448649 L549.1233,349.448649 L456.756387,324.086486 L439.962402,395.945946 C439.962402,395.945946 490.344355,408.627027 490.344355,408.627027 C515.535332,417.081081 523.932324,433.989189 519.733828,446.67027 L490.344355,573.481081 C494.542851,573.481081 494.542851,573.481081 498.741347,577.708108 L490.344355,577.708108 L448.359394,755.243243 C444.160898,763.697297 435.763906,776.378378 418.969922,772.151351 C418.969922,772.151351 368.587969,759.47027 368.587969,759.47027 L335,835.556757 L423.168418,856.691892 C439.962402,860.918919 456.756387,865.145946 469.351875,869.372973 L439.962402,983.502703 L507.13834,1000.41081 L536.527812,890.508108 C553.321797,894.735135 574.314277,898.962162 591.108261,903.189189 L561.718789,1013.09189 L628.894726,1030 L658.284199,915.87027 C771.643593,937.005405 859.812011,928.551351 893.39998,822.875676 C922.789452,738.335135 893.39998,691.837838 830.422538,658.021622 C872.407499,649.567568 905.995468,619.978378 914.39246,560.8 Z M763.246601,776.378378 C742.25412,860.918919 603.70375,814.421622 557.520293,801.740541 L595.306757,653.794595 C637.291718,666.475676 784.239081,691.837838 763.246601,776.378378 L763.246601,776.378378 Z M784.239081,560.8 C763.246601,636.886486 649.887207,598.843243 612.100742,590.389189 L645.68871,455.124324 C679.276679,463.578378 801.033066,480.486486 784.239081,560.8 L784.239081,560.8 Z" id="Shape" fill="#FFFFFF"></path>
            </g>
        </g>
    </g>
</svg>