<svg id="Livello_1" data-name="Livello 1" xmlns="http://www.w3.org/2000/svg" xmlns:xlink="http://www.w3.org/1999/xlink" viewBox="0 0 1495 1495"><defs><style>.cls-1{fill:url(#Sfumatura_senza_nome);}.cls-2{fill:#fff;stroke:#9aea3b;stroke-width:15px;}.cls-3{fill:#0042ac;}.cls-4{fill:#9aea3b;}</style><linearGradient id="Sfumatura_senza_nome" x1="648.57" y1="847.93" x2="647.57" y2="847.93" gradientTransform="matrix(1495, 0, 0, -1495, -968112, 1268408)" gradientUnits="userSpaceOnUse"><stop offset="0" stop-color="#1d9dd8"/><stop offset="1" stop-color="#0d73cb"/></linearGradient></defs><circle id="Oval" class="cls-1" cx="747.5" cy="747.5" r="747.5"/><g id="Group"><circle id="Oval-2" data-name="Oval" cx="752" cy="748" r="646"/></g><path class="cls-2" d="M750.31,1389.24c357.71,0,647.69-290,647.69-647.7S1108,93.85,750.31,93.85s-647.69,290-647.69,647.69S392.6,1389.24,750.31,1389.24Z"/><path class="cls-3" d="M993.46,600.88a252.61,252.61,0,0,0-72-68.9,564.34,564.34,0,0,0-133.38-15.86c-236.66,0-396.07,145.55-458.28,214.52a18.74,18.74,0,0,0,.13,25.3A734.29,734.29,0,0,0,472.21,875.35a339.54,339.54,0,0,1-20-66.29,703.21,703.21,0,0,1-74.81-65.59v-.85C444.06,674.06,586.13,559,788.07,559A526.94,526.94,0,0,1,993.46,600.88Z"/><path class="cls-3" d="M1102.28,609.64a339.53,339.53,0,0,1,20.73,66.5,664.42,664.42,0,0,1,75.13,66.2v.81c-69,69.33-214.11,185.66-410.38,185.66-77.78,0-147.23-18-207.1-43.9a252.41,252.41,0,0,0,72,69.91,548,548,0,0,0,135.09,16.95c229.84,0,393.14-146.33,457.84-216a18.74,18.74,0,0,0,.2-25.37A699.71,699.71,0,0,0,1102.28,609.64Z"/><path class="cls-4" d="M1340.53,784.48a63.81,63.81,0,0,0,.41-80.38c-67.41-83.45-256.21-277.51-553.13-277.51S302.1,620.65,234.7,704.1a63.44,63.44,0,0,0-10.47,18.77H124.08a31.46,31.46,0,0,0,29.24,42.93h71.17a63,63,0,0,0,10.63,18.68c68.78,83.46,260.35,277.6,552.67,277.61S1271.73,868,1340.53,784.48ZM787.75,1018.27h-.63c-151.29.29-274.3-122.92-274.3-274.35a273.21,273.21,0,0,1,14.82-88.79A599.42,599.42,0,0,0,474.56,690,316.82,316.82,0,0,0,575.61,980.43c-169.19-63-278.67-186.23-318.08-236.67,52.63-68.91,234.85-274.82,530.31-274.82,5.06,0,10,.2,14.74.32v.12c144.83,7.89,260,128,260,274.53a273.5,273.5,0,0,1-13.66,85.36c18.91-11.21,36.43-23,52.52-34.85A317.21,317.21,0,0,0,997.84,505.63c172.65,62.42,281.61,187.35,320.35,238.09-54,69.14-239.63,275.11-530.3,275.57h-.09Z"/><path class="cls-3" d="M836.47,656.06a27.28,27.28,0,0,1-5.83,17A141.56,141.56,0,0,1,845,798a22.16,22.16,0,0,1,7.82,9.66,129.42,129.42,0,0,0,67.74-44.29,133.79,133.79,0,0,0-31.11-106A163.08,163.08,0,0,0,836.47,656.06Z"/><path class="cls-3" d="M700.73,783.8a163.49,163.49,0,0,0-.4,62.66,133.32,133.32,0,0,0,47.55,26.48,126.77,126.77,0,0,0,54.94-32.31c1.35-1.35,2.56-2.8,3.83-4.21a27.19,27.19,0,0,1-5.4-11.49A144.39,144.39,0,0,1,715,783.47c-.74-.74-1.43-1.54-2.15-2.29A27.23,27.23,0,0,1,700.73,783.8Z"/><path class="cls-3" d="M695.25,729.65a27.71,27.71,0,0,1,11.75,0,173.8,173.8,0,0,1,74.84-70.46,27.24,27.24,0,0,1,2.54-14.63,127.5,127.5,0,0,0-53.64-20.89A133.46,133.46,0,0,0,693,650.12c-1.56,1.53-2.89,3.2-4.35,4.79A132.53,132.53,0,0,0,695.25,729.65Z"/><path class="cls-3" d="M723.18,772.62c.42.45.79.92,1.22,1.36a130.74,130.74,0,0,0,77.69,37.38,27,27,0,0,1,30.78-18.83,128.24,128.24,0,0,0-12.76-111.17,27.42,27.42,0,0,1-30.48-5.66,28.39,28.39,0,0,1-3.22-3.94,160.88,160.88,0,0,0-67.48,63.83c.54.47,1.14.84,1.65,1.36A27.37,27.37,0,0,1,723.18,772.62Z"/><path class="cls-3" d="M684.79,830.79a177.77,177.77,0,0,1,3.15-50.47,26.83,26.83,0,0,1-6.22-4.52,27.46,27.46,0,0,1,0-38.85c.5-.5,1.08-.87,1.62-1.33a146,146,0,0,1-10.65-59.43A134.18,134.18,0,0,0,684.79,830.79Z"/><path class="cls-3" d="M753.72,615.2a141.2,141.2,0,0,1,39.13,19A26.9,26.9,0,0,1,833,643.07a176.47,176.47,0,0,1,40.76-1.22A134.06,134.06,0,0,0,753.72,615.2Z"/><path class="cls-3" d="M882.71,839.78a133.47,133.47,0,0,0,31.61-50.48A144.55,144.55,0,0,1,855.5,821a27.28,27.28,0,0,1-38.22,23.74c-1.62,1.81-3.28,3.58-5,5.32a139.81,139.81,0,0,1-40.29,28A133.76,133.76,0,0,0,882.71,839.78Z"/></svg>