<?xml version="1.0" encoding="UTF-8"?>
<svg width="1928px" height="1928px" viewBox="0 0 1928 1928" version="1.1" xmlns="http://www.w3.org/2000/svg" xmlns:xlink="http://www.w3.org/1999/xlink">
    <title>Group 16</title>
    <defs>
        <filter id="filter-1">
            <feColorMatrix in="SourceGraphic" type="matrix" values="0 0 0 0 1.000000 0 0 0 0 1.000000 0 0 0 0 1.000000 0 0 0 1.000000 0"></feColorMatrix>
        </filter>
        <linearGradient x1="50%" y1="0%" x2="50%" y2="100%" id="linearGradient-2">
            <stop stop-color="#0C71CA" offset="0%"></stop>
            <stop stop-color="#1D9ED8" offset="100%"></stop>
        </linearGradient>
    </defs>
    <g id="ICO-FINALI" stroke="none" stroke-width="1" fill="none" fill-rule="evenodd">
        <g id="Group-16">
            <g id="Group-3" transform="translate(320.000000, 320.000000)">
                <circle id="Oval" fill="#000000" cx="646" cy="646" r="646"></circle>
                <g filter="url(#filter-1)" id="frALGO">
                    <g transform="translate(204.000000, 156.000000)">
                        <polygon id="Path" fill="#000000" fill-rule="nonzero" points="142.918193 828 262.521324 620.595703 382.124455 414 500.920139 206.595703 520.601674 173.746589 529.38267 206.595703 565.818725 343.146979 525.042634 414 405.439503 620.595703 286.542869 828 429.461049 828 549.064206 620.595703 611.035776 513.254896 640.204805 620.595703 695.615873 828 824 828 768.588933 620.595703 713.177865 414 698.542889 360.73388 787.463021 206.595703 657.665847 206.595703 653.325837 191.33349 608.108786 21.933099 602.25478 0 477.60509 0 474.6781 4.34619788 358.001959 206.595703 238.499752 414 119.603144 620.595703 0 828"></polygon>
                    </g>
                </g>
            </g>
            <g id="exchange-cny-svgrepo-com-(1)">
                <polygon id="Path" points="0 0 1928 0 1928 1928 0 1928"></polygon>
                <path d="M1555.69661,1217.34282 C1662.42899,963.231546 1595.66128,669.221395 1389.70597,486.406639 C1183.75065,303.591882 884.422361,272.639551 645.548409,409.456305 L565.965596,269.824577 C813.730469,127.931387 1118.08347,128.666102 1365.16316,271.753858 C1725.37166,480.11623 1863.35799,926.262514 1695.44788,1298.29224 L1803.10931,1360.51156 L1468.97381,1538.48776 L1455.73675,1159.54477 L1555.69661,1217.34282 Z M372.383611,718.462849 C265.651232,972.574122 332.418943,1266.58427 538.374259,1449.39903 C744.329575,1632.21379 1043.65786,1663.16612 1282.53182,1526.34936 L1362.11463,1665.98109 C1114.34976,1807.87428 809.996755,1807.13957 562.917061,1664.05181 C202.70856,1455.68944 64.7222305,1009.54315 232.63234,637.513424 L124.890688,575.374491 L459.02619,397.398298 L472.263251,776.341285 L372.303387,718.543235 L372.383611,718.462849 Z" id="Shape" fill="url(#linearGradient-2)" fill-rule="nonzero"></path>
            </g>
        </g>
    </g>
</svg>