<?xml version="1.0" encoding="UTF-8"?>
<svg width="1928px" height="1928px" viewBox="0 0 1928 1928" version="1.1" xmlns="http://www.w3.org/2000/svg" xmlns:xlink="http://www.w3.org/1999/xlink">
    <title>Group 16</title>
    <defs>
        <linearGradient x1="50%" y1="0%" x2="50%" y2="100%" id="linearGradient-1">
            <stop stop-color="#0C71CA" offset="0%"></stop>
            <stop stop-color="#1D9ED8" offset="100%"></stop>
        </linearGradient>
    </defs>
    <g id="ICO-FINALI" stroke="none" stroke-width="1" fill="none" fill-rule="evenodd">
        <g id="Group-16">
            <g id="Group-3" transform="translate(320.000000, 319.000000)" fill-rule="nonzero">
                <g id="goBTC">
                    <circle id="Oval" fill="#F7931A" cx="657" cy="641" r="599"></circle>
                    <path d="M647.5,1295 C288.241935,1295 0,1002.58065 0,647.5 C0,292.419355 288.241935,0 647.5,0 C1006.75806,0 1295,292.419355 1295,647.5 C1295,1002.58065 1006.75806,1295 647.5,1295 Z M647.5,96.0806452 C342.548387,96.0806452 96.0806452,342.548387 96.0806452,647.5 C96.0806452,952.451613 342.548387,1198.91935 647.5,1198.91935 C952.451613,1198.91935 1198.91935,952.451613 1198.91935,647.5 C1198.91935,342.548387 952.451613,96.0806452 647.5,96.0806452 Z" id="Shape" fill="#1BFED7"></path>
                    <path d="M914.39246,560.8 C926.987948,480.486486 864.010507,433.989189 780.040585,404.4 L809.430058,294.497297 L742.25412,277.589189 L717.063144,387.491892 C700.26916,383.264865 679.276679,379.037838 662.482695,374.810811 L687.673671,264.908108 L620.497734,248 L591.108261,357.902703 C578.512773,353.675676 561.718789,349.448649 549.1233,349.448649 L549.1233,349.448649 L456.756387,324.086486 L439.962402,395.945946 C439.962402,395.945946 490.344355,408.627027 490.344355,408.627027 C515.535332,417.081081 523.932324,433.989189 519.733828,446.67027 L490.344355,573.481081 C494.542851,573.481081 494.542851,573.481081 498.741347,577.708108 L490.344355,577.708108 L448.359394,755.243243 C444.160898,763.697297 435.763906,776.378378 418.969922,772.151351 C418.969922,772.151351 368.587969,759.47027 368.587969,759.47027 L335,835.556757 L423.168418,856.691892 C439.962402,860.918919 456.756387,865.145946 469.351875,869.372973 L439.962402,983.502703 L507.13834,1000.41081 L536.527812,890.508108 C553.321797,894.735135 574.314277,898.962162 591.108261,903.189189 L561.718789,1013.09189 L628.894726,1030 L658.284199,915.87027 C771.643593,937.005405 859.812011,928.551351 893.39998,822.875676 C922.789452,738.335135 893.39998,691.837838 830.422538,658.021622 C872.407499,649.567568 905.995468,619.978378 914.39246,560.8 Z M763.246601,776.378378 C742.25412,860.918919 603.70375,814.421622 557.520293,801.740541 L595.306757,653.794595 C637.291718,666.475676 784.239081,691.837838 763.246601,776.378378 L763.246601,776.378378 Z M784.239081,560.8 C763.246601,636.886486 649.887207,598.843243 612.100742,590.389189 L645.68871,455.124324 C679.276679,463.578378 801.033066,480.486486 784.239081,560.8 L784.239081,560.8 Z" id="Shape" fill="#FFFFFF"></path>
                </g>
            </g>
            <g id="exchange-cny-svgrepo-com-(1)">
                <polygon id="Path" points="0 0 1928 0 1928 1928 0 1928"></polygon>
                <path d="M1555.69661,1217.34282 C1662.42899,963.231546 1595.66128,669.221395 1389.70597,486.406639 C1183.75065,303.591882 884.422361,272.639551 645.548409,409.456305 L565.965596,269.824577 C813.730469,127.931387 1118.08347,128.666102 1365.16316,271.753858 C1725.37166,480.11623 1863.35799,926.262514 1695.44788,1298.29224 L1803.10931,1360.51156 L1468.97381,1538.48776 L1455.73675,1159.54477 L1555.69661,1217.34282 Z M372.383611,718.462849 C265.651232,972.574122 332.418943,1266.58427 538.374259,1449.39903 C744.329575,1632.21379 1043.65786,1663.16612 1282.53182,1526.34936 L1362.11463,1665.98109 C1114.34976,1807.87428 809.996755,1807.13957 562.917061,1664.05181 C202.70856,1455.68944 64.7222305,1009.54315 232.63234,637.513424 L124.890688,575.374491 L459.02619,397.398298 L472.263251,776.341285 L372.303387,718.543235 L372.383611,718.462849 Z" id="Shape" fill="url(#linearGradient-1)" fill-rule="nonzero"></path>
            </g>
        </g>
    </g>
</svg>