<svg id="Livello_1" data-name="Livello 1" xmlns="http://www.w3.org/2000/svg" xmlns:xlink="http://www.w3.org/1999/xlink" viewBox="0 0 1928 1928"><defs><style>.cls-1{fill:none;}.cls-2{fill:#fff;stroke:#9aea3b;stroke-width:15px;}.cls-3{fill:#0042ac;}.cls-4{fill:#9aea3b;}.cls-5{fill:url(#Sfumatura_senza_nome);}</style><linearGradient id="Sfumatura_senza_nome" x1="864" y1="1064.54" x2="864" y2="1063.54" gradientTransform="matrix(1678.22, 0, 0, -1607.97, -1448991.9, 1711905.37)" gradientUnits="userSpaceOnUse"><stop offset="0" stop-color="#0c71ca"/><stop offset="1" stop-color="#1d9ed8"/></linearGradient></defs><polygon id="Path" class="cls-1" points="0 0 1928 0 1928 1928 0 1928 0 0"/><path class="cls-2" d="M989.18,1601.5c350,0,633.67-283.7,633.67-633.66s-283.7-633.66-633.67-633.66S355.52,617.88,355.52,967.84,639.22,1601.5,989.18,1601.5Z" transform="translate(-25.18)"/><path class="cls-3" d="M1227.07,830.22a247,247,0,0,0-70.48-67.41,552.5,552.5,0,0,0-130.48-15.51c-231.53,0-387.49,142.39-448.35,209.88a18.32,18.32,0,0,0,.12,24.74,718.43,718.43,0,0,0,139.23,116.83,332.41,332.41,0,0,1-19.6-64.86,686.43,686.43,0,0,1-73.19-64.17v-.83c65.25-67.08,204.24-179.62,401.81-179.62A515.41,515.41,0,0,1,1227.07,830.22Z" transform="translate(-25.18)"/><path class="cls-3" d="M1333.54,838.8a332,332,0,0,1,20.27,65.06,648.69,648.69,0,0,1,73.51,64.76v.79c-67.51,67.83-209.47,181.64-401.5,181.64-76.09,0-144-17.58-202.61-43a246.93,246.93,0,0,0,70.45,68.4,536,536,0,0,0,132.16,16.58c224.86,0,384.63-143.17,447.93-211.32a18.34,18.34,0,0,0,.19-24.82A684.37,684.37,0,0,0,1333.54,838.8Z" transform="translate(-25.18)"/><path class="cls-4" d="M1566.62,1009.85a62.43,62.43,0,0,0,.4-78.64c-65.94-81.64-250.66-271.51-541.14-271.51S550.68,849.57,484.74,931.21a61.83,61.83,0,0,0-10.24,18.36h-98a30.78,30.78,0,0,0,28.61,42h69.62a62.1,62.1,0,0,0,10.4,18.28c67.29,81.65,254.71,271.58,540.7,271.6S1499.31,1091.51,1566.62,1009.85Zm-540.8,228.72h-.62c-148,.29-268.36-120.26-268.36-268.4a267.48,267.48,0,0,1,14.49-86.87,587.53,587.53,0,0,0-51.93,34.1,310,310,0,0,0,98.87,284.15C652.74,1139.94,545.63,1019.36,507.08,970c51.49-67.42,229.76-268.87,518.82-268.87,4.95,0,9.8.19,14.42.31v.12c141.69,7.72,254.39,125.27,254.39,268.59a267.67,267.67,0,0,1-13.36,83.51c18.5-11,35.64-22.51,51.38-34.1A310.34,310.34,0,0,0,1231.36,737c168.9,61.06,275.51,183.29,313.41,232.93-52.88,67.64-234.45,269.15-518.82,269.6h-.08Z" transform="translate(-25.18)"/><path class="cls-3" d="M1073.48,884.21a26.72,26.72,0,0,1-5.7,16.58,138.55,138.55,0,0,1,14.06,122.33,26,26,0,0,1,2.53,2.05,26.81,26.81,0,0,1,5.11,7.4,126.67,126.67,0,0,0,66.28-43.34,130.84,130.84,0,0,0-30.44-103.66A159.38,159.38,0,0,0,1073.48,884.21Z" transform="translate(-25.18)"/><path class="cls-3" d="M940.68,1009.18a160,160,0,0,0-.39,61.3,130.58,130.58,0,0,0,46.52,25.91,124,124,0,0,0,53.75-31.61c1.32-1.32,2.51-2.74,3.75-4.12a26.5,26.5,0,0,1-5.29-11.24,141.27,141.27,0,0,1-84.42-40.56c-.72-.73-1.39-1.51-2.1-2.24A26.65,26.65,0,0,1,940.68,1009.18Z" transform="translate(-25.18)"/><path class="cls-3" d="M935.32,956.21a26.82,26.82,0,0,1,11.49,0A170.08,170.08,0,0,1,1020,887.27a26.69,26.69,0,0,1,2.49-14.32A124.78,124.78,0,0,0,970,852.52a130.53,130.53,0,0,0-37,25.87c-1.51,1.51-2.82,3.13-4.24,4.69A129.59,129.59,0,0,0,935.32,956.21Z" transform="translate(-25.18)"/><path class="cls-3" d="M962.64,998.24c.42.44.78.91,1.19,1.33a127.94,127.94,0,0,0,76,36.58,26.44,26.44,0,0,1,30.12-18.42A125.49,125.49,0,0,0,1057.47,909a26.51,26.51,0,0,1-33-9.39,157.38,157.38,0,0,0-66,62.45c.53.45,1.12.82,1.62,1.32A26.78,26.78,0,0,1,962.64,998.24Z" transform="translate(-25.18)"/><path class="cls-3" d="M925.08,1055.15a174.46,174.46,0,0,1,3.08-49.37,26.48,26.48,0,0,1-6.08-4.43,26.86,26.86,0,0,1,0-38c.49-.49,1.06-.84,1.58-1.3a143.17,143.17,0,0,1-10.42-58.14A131.3,131.3,0,0,0,925.08,1055.15Z" transform="translate(-25.18)"/><path class="cls-3" d="M992.52,844.24a137.85,137.85,0,0,1,38.28,18.59,26.34,26.34,0,0,1,39.28,8.67,172.14,172.14,0,0,1,39.87-1.19A131.15,131.15,0,0,0,992.52,844.24Z" transform="translate(-25.18)"/><path class="cls-3" d="M1118.72,1064a130.37,130.37,0,0,0,30.92-49.39,141.24,141.24,0,0,1-57.54,31,26.69,26.69,0,0,1-37.4,23.23c-1.58,1.77-3.2,3.51-4.9,5.2a136.7,136.7,0,0,1-39.41,27.44A130.83,130.83,0,0,0,1118.72,1064Z" transform="translate(-25.18)"/><path id="Shape" class="cls-5" d="M1580.88,1217.34c106.73-254.11,40-548.12-166-730.93a640.85,640.85,0,0,0-744.16-77L591.15,269.82a800.55,800.55,0,0,1,799.2,1.93c360.21,208.37,498.19,654.51,330.28,1026.54l107.66,62.22-334.13,178-13.24-379ZM397.57,718.46c-106.73,254.11-40,548.12,166,730.94a640.87,640.87,0,0,0,744.16,76.95L1387.3,1666a800.53,800.53,0,0,1-799.2-1.93C227.89,1455.69,89.91,1009.54,257.82,637.51L150.08,575.37l334.13-178,13.24,378.94-100-57.8Z" transform="translate(-25.18)"/></svg>