<?xml version="1.0" encoding="UTF-8"?>
<svg width="1928px" height="1928px" viewBox="0 0 1928 1928" version="1.1" xmlns="http://www.w3.org/2000/svg" xmlns:xlink="http://www.w3.org/1999/xlink">
    <title>Group 16</title>
    <defs>
        <linearGradient x1="50%" y1="0%" x2="50%" y2="100%" id="linearGradient-1">
            <stop stop-color="#0C71CA" offset="0%"></stop>
            <stop stop-color="#1D9ED8" offset="100%"></stop>
        </linearGradient>
    </defs>
    <g id="ICO-FINALI" stroke="none" stroke-width="1" fill="none" fill-rule="evenodd">
        <g id="Group-16">
            <circle id="Oval" fill="#FFFFFF" cx="968.5" cy="964.5" r="653.5"></circle>
            <g id="usdc" transform="translate(476.000000, 500.000000)" fill="#2775CA">
                <path d="M367,907.47674 C367,922.70973 354.987834,931.364562 340.150954,926.765923 C142.965971,864.291638 0,680.66185 0,463.995539 C0,247.333277 142.965971,63.6970111 340.150954,1.22394025 C354.987834,-3.34676638 367,5.2793241 367,20.514743 L367,58.12521 C367,68.2677177 359.088356,80.2059614 349.354711,83.5104232 C193.346145,140.404811 81.5877565,289.251324 81.5877565,463.736461 C81.5877565,638.225646 193.346145,787.098471 349.354711,843.962094 C359.088356,847.524419 367,859.199132 367,869.380096 L367,907.47674 Z" id="Path"></path>
                <path d="M523.83128,765.645987 C523.83128,776.844342 514.553365,786 503.217799,786 L462.237262,786 C450.901696,786 441.627888,776.844342 441.627888,765.645987 L441.627888,701.57259 C351.945487,689.624435 308.147486,640.024193 296.29032,572.643573 C294.220347,561.185828 303.494154,550.765643 315.355428,550.765643 L362.258388,550.765643 C372.045581,550.765643 380.296724,557.639479 382.358483,567.285547 C391.127118,607.470741 414.574491,638.240886 486.460875,638.240886 C539.549111,638.240886 577.18237,608.994657 577.18237,565.275274 C577.18237,521.515361 555.012302,504.995457 477.187067,492.269132 C362.258388,477.013754 307.884633,442.676996 307.884633,353.673783 C307.884633,285.016477 360.46359,231.618602 441.890742,220.168963 L441.890742,157.353203 C441.890742,146.159711 451.172763,137 462.500116,137 L503.480652,137 C514.816219,137 524.090026,146.159711 524.090026,157.353203 L524.090026,221.95227 C590.320948,233.665352 632.32415,270.770289 645.988436,332.31058 C648.559474,344.027715 639.281559,354.938309 627.177967,354.938309 L583.876925,354.938309 C574.59901,354.938309 566.873575,348.830484 564.039684,339.934216 C552.445371,300.790635 524.090026,284.011341 474.866561,284.011341 C420.496914,284.011341 392.404423,309.94224 392.404423,346.301431 C392.404423,384.703318 408.389214,404.015719 491.890447,415.992244 C604.745046,431.247621 663,463.026956 663,557.902922 C663,629.863398 608.876778,688.100519 524.090026,701.57259 L524.090026,765.645987 L523.83128,765.645987 Z" id="Path"></path>
                <path d="M634.853062,926.763908 C620.028444,931.368597 608,922.705949 608,907.46633 L608,869.867441 C608,858.681731 614.908916,848.269543 625.64525,844.442427 C781.656323,787.521661 893.413648,638.612401 893.413648,464.051335 C893.413648,289.48622 781.656323,140.576555 625.64525,83.6574092 C615.932006,80.0935334 608,68.4153604 608,58.2315854 L608,20.6343158 C608,5.39226711 620.028444,-3.4955531 634.853062,1.30555456 C832.036385,63.8426648 975,247.549932 975,464.306477 C974.755437,680.548689 832.036385,864.007295 634.853062,926.763908 Z" id="Path"></path>
            </g>
            <g id="exchange-cny-svgrepo-com-(1)">
                <polygon id="Path" points="0 0 1928 0 1928 1928 0 1928"></polygon>
                <path d="M1555.69661,1217.34282 C1662.42899,963.231546 1595.66128,669.221395 1389.70597,486.406639 C1183.75065,303.591882 884.422361,272.639551 645.548409,409.456305 L565.965596,269.824577 C813.730469,127.931387 1118.08347,128.666102 1365.16316,271.753858 C1725.37166,480.11623 1863.35799,926.262514 1695.44788,1298.29224 L1803.10931,1360.51156 L1468.97381,1538.48776 L1455.73675,1159.54477 L1555.69661,1217.34282 Z M372.383611,718.462849 C265.651232,972.574122 332.418943,1266.58427 538.374259,1449.39903 C744.329575,1632.21379 1043.65786,1663.16612 1282.53182,1526.34936 L1362.11463,1665.98109 C1114.34976,1807.87428 809.996755,1807.13957 562.917061,1664.05181 C202.70856,1455.68944 64.7222305,1009.54315 232.63234,637.513424 L124.890688,575.374491 L459.02619,397.398298 L472.263251,776.341285 L372.303387,718.543235 L372.383611,718.462849 Z" id="Shape" fill="url(#linearGradient-1)" fill-rule="nonzero"></path>
            </g>
        </g>
    </g>
</svg>