<?xml version="1.0" encoding="UTF-8"?>
<svg width="1928px" height="1928px" viewBox="0 0 1928 1928" version="1.1" xmlns="http://www.w3.org/2000/svg" xmlns:xlink="http://www.w3.org/1999/xlink">
    <title>Group 16</title>
    <defs>
        <linearGradient x1="50%" y1="0%" x2="50%" y2="100%" id="linearGradient-1">
            <stop stop-color="#0C71CA" offset="0%"></stop>
            <stop stop-color="#1D9ED8" offset="100%"></stop>
        </linearGradient>
    </defs>
    <g id="ICO-FINALI" stroke="none" stroke-width="1" fill="none" fill-rule="evenodd">
        <g id="Group-16">
            <g id="usdt" transform="translate(316.000000, 318.000000)" fill-rule="nonzero">
                <path d="M1295,647.500517 C1295,1005.11298 1005.11632,1295 647.502969,1295 C289.898968,1295 0,1005.11298 0,647.500517 C0,289.89212 289.898968,0 647.502969,0 C1005.11632,0 1295,289.89212 1295,647.500517 Z" id="Path" fill="#1BA27A"></path>
                <polygon id="Path" fill="#FFFFFF" points="958 321 344 321 344 469.59608 576.885456 469.59608 576.885456 688 725.11658 688 725.11658 469.59608 958 469.59608"></polygon>
                <path d="M653.003049,716.635875 C460.694204,716.635875 304.779255,686.134958 304.779255,648.498824 C304.779255,610.87084 460.686072,580.361774 653.003049,580.361774 C845.315961,580.361774 1001.22359,610.87084 1001.22359,648.498824 C1001.22359,686.134958 845.315961,716.635875 653.003049,716.635875 Z M1044,659.859753 C1044,611.331308 868.946461,572 653.003049,572 C437.06777,572 262,611.331308 262,659.859753 C262,702.593636 397.743235,738.196375 577.618828,746.085457 L577.618828,1059 L725.577795,1059 L725.577795,746.207705 C906.839829,738.56312 1044,702.813682 1044,659.859753 Z" id="Shape" fill="#FFFFFF"></path>
            </g>
            <g id="exchange-cny-svgrepo-com-(1)">
                <polygon id="Path" points="0 0 1928 0 1928 1928 0 1928"></polygon>
                <path d="M1555.69661,1217.34282 C1662.42899,963.231546 1595.66128,669.221395 1389.70597,486.406639 C1183.75065,303.591882 884.422361,272.639551 645.548409,409.456305 L565.965596,269.824577 C813.730469,127.931387 1118.08347,128.666102 1365.16316,271.753858 C1725.37166,480.11623 1863.35799,926.262514 1695.44788,1298.29224 L1803.10931,1360.51156 L1468.97381,1538.48776 L1455.73675,1159.54477 L1555.69661,1217.34282 Z M372.383611,718.462849 C265.651232,972.574122 332.418943,1266.58427 538.374259,1449.39903 C744.329575,1632.21379 1043.65786,1663.16612 1282.53182,1526.34936 L1362.11463,1665.98109 C1114.34976,1807.87428 809.996755,1807.13957 562.917061,1664.05181 C202.70856,1455.68944 64.7222305,1009.54315 232.63234,637.513424 L124.890688,575.374491 L459.02619,397.398298 L472.263251,776.341285 L372.303387,718.543235 L372.383611,718.462849 Z" id="Shape" fill="url(#linearGradient-1)" fill-rule="nonzero"></path>
            </g>
        </g>
    </g>
</svg>