<svg xmlns="http://www.w3.org/2000/svg" viewBox="0 0 1327.43 1327.43">
    <linearGradient id="a" x1="88.2361%" x2="12.1546%" y1="17.8348%" y2="78.9931%">
      <stop offset="0%" stop-color="#1D9DD8"/>
      <stop offset="100%" stop-color="#0E74CC"/>
    </linearGradient>
    <filter id="b">
      <feColorMatrix in="SourceGraphic" values="0 0 0 0 1.000000 0 0 0 0 1.000000 0 0 0 0 1.000000 0 0 0 1.000000 0"/>
    </filter>
  <g fill="none" fill-rule="evenodd">
    <circle cx="663.7164" cy="663.7164" r="663.7164" fill="url(#a)"/>
    <g filter="url(#b)">
      <path fill="#fff" fill-rule="nonzero" d="m401.7281 954 97.6856-168.5786L597.0992 617.5l97.0261-168.5786 16.0749-26.6998 7.1718 26.6998 29.7591 110.9891L713.8273 617.5l-97.6856 167.9214L519.0332 954h116.7281l97.6856-168.5786 50.6151-87.2468 23.8237 87.2468L853.1426 954H958l-45.2569-168.5786L867.4863 617.5l-11.9531-43.2948 72.6253-125.2838H822.147l-3.5447-12.4052-36.9309-137.6889L776.8901 281H675.0828l-2.3906 3.5326-95.295 164.3888L479.7941 617.5l-97.1085 167.9214L285 954z"/>
    </g>
  </g>
</svg>