<svg xmlns="http://www.w3.org/2000/svg" xmlns:xlink="http://www.w3.org/1999/xlink" viewBox="0 0 311.55 311.55"><defs><style>.cls-1{fill:url(#Sfumatura_senza_nome_9);}.cls-2{fill:#fff;fill-rule:evenodd;}</style><linearGradient id="Sfumatura_senza_nome_9" y1="155.77" x2="311.55" y2="155.77" gradientUnits="userSpaceOnUse"><stop offset="0" stop-color="#0069c5"/><stop offset="0.18" stop-color="#0a7fce"/><stop offset="0.74" stop-color="#26bce6"/><stop offset="1" stop-color="#31d4f0"/></linearGradient></defs><g id="Livello_2" data-name="Livello 2"><g id="Livello_1-2" data-name="Livello 1"><circle class="cls-1" cx="155.77" cy="155.77" r="155.77"/><path class="cls-2" d="M135.1,85.85c10.54,10.54,21.19,23.72,33,32.78,5.28,4.05,11.24,6,19.13,1.86.09.05.1-.6,0,0l-17.57,17.57a14.58,14.58,0,0,1-20.57,0l-31.94-31.93c-12.8-12.81,6.88-31.37,18-20.28Zm47.68-1.1a15.8,15.8,0,1,0,15.79,15.8A15.8,15.8,0,0,0,182.78,84.75Z"/><path class="cls-2" d="M135.1,85.85c10.54,10.54,21.19,23.72,33,32.78,5.28,4.05,11.24,6,19.13,1.86.09.05.1-.6,0,0l-.56.55a57.37,57.37,0,0,1-73-20.37c-4.09-11.85,11.91-24.4,21.48-14.82Zm47.68-1.1a15.8,15.8,0,1,0,15.79,15.8A15.8,15.8,0,0,0,182.78,84.75Z"/><path class="cls-2" d="M176.45,229.61c-10.55-10.54-21.19-23.72-33-32.79-5.27-4-11.24-6-19.13-1.85-.09-.05-.09.59,0,0l17.57-17.58a14.6,14.6,0,0,1,20.57,0l31.94,31.94c12.81,12.81-6.87,31.36-18,20.28Zm-47.68,1.09A15.8,15.8,0,1,0,113,214.91,15.79,15.79,0,0,0,128.77,230.7Z"/><path class="cls-2" d="M176.45,229.61c-10.55-10.54-21.19-23.72-33-32.79-5.27-4-11.24-6-19.13-1.85-.09-.05-.09.59,0,0l.56-.56a57.37,57.37,0,0,1,73,20.37c4.09,11.85-11.9,24.4-21.47,14.83Zm-47.68,1.09A15.8,15.8,0,1,0,113,214.91,15.79,15.79,0,0,0,128.77,230.7Z"/><path class="cls-2" d="M227.65,137.06c-10.54,10.54-23.72,21.18-32.78,33-4.05,5.27-6,11.24-1.86,19.13,0,.09.6.09,0,0L175.44,171.6a14.57,14.57,0,0,1,0-20.56l31.93-31.94c12.81-12.81,31.37,6.87,20.28,18Zm1.1,47.67A15.8,15.8,0,1,0,213,200.52,15.8,15.8,0,0,0,228.75,184.73Z"/><path class="cls-2" d="M227.65,137.06c-10.54,10.54-23.72,21.18-32.78,33-4.05,5.27-6,11.24-1.86,19.13,0,.09.6.09,0,0l-.56-.56a57.4,57.4,0,0,1,20.38-73c11.85-4.09,24.4,11.9,14.82,21.48Zm1.1,47.67A15.8,15.8,0,1,0,213,200.52,15.8,15.8,0,0,0,228.75,184.73Z"/><path class="cls-2" d="M83.89,178.4c10.54-10.54,23.72-21.19,32.79-33,4-5.28,6-11.24,1.85-19.13,0-.09-.6-.1,0,0l17.58,17.57a14.6,14.6,0,0,1,0,20.57l-31.94,31.93c-12.81,12.81-31.36-6.87-20.28-17.95ZM82.8,130.72a15.8,15.8,0,1,0,15.79-15.79A15.8,15.8,0,0,0,82.8,130.72Z"/><path class="cls-2" d="M83.89,178.4c10.54-10.54,23.72-21.19,32.79-33,4-5.28,6-11.24,1.85-19.13,0-.09-.6-.1,0,0l.56.55a57.39,57.39,0,0,1-20.37,73.05C86.86,204,74.32,188,83.89,178.4ZM82.8,130.72a15.8,15.8,0,1,0,15.79-15.79A15.8,15.8,0,0,0,82.8,130.72Z"/></g></g></svg>