<?xml version="1.0" encoding="UTF-8"?>
<svg id="Livello_1" data-name="Livello 1" xmlns="http://www.w3.org/2000/svg" viewBox="0 0 654 618.99">
  <defs>
    <style>
      .cls-1 {
        fill: #fff;
        fill-rule: evenodd;
      }

      .cls-2 {
        fill: #3669bb;
      }
    </style>
  </defs>
  <circle class="cls-2" cx="332.2" cy="307.39" r="295.17"/>
  <g>
    <path class="cls-1" d="m388.64,154.85c-18.18,0-33.06,14.88-33.06,33.06s14.88,33.06,33.06,33.06,33.06-14.88,33.06-33.06-14.76-33.06-33.06-33.06Zm-99.65,2.24c21.96,21.96,44.28,49.59,68.95,68.48,11.1,8.5,23.5,12.52,40.03,3.9.12.12.12-1.18,0,0l-36.84,36.84c-11.81,11.81-31.17,11.81-42.98,0l-66.83-66.83c-26.8-26.8,14.4-65.53,37.66-42.39Z"/>
    <path class="cls-1" d="m275.76,459.94c18.18,0,33.06-14.88,33.06-33.06s-14.88-33.06-33.06-33.06-33.06,14.88-33.06,33.06,14.76,33.06,33.06,33.06Zm99.65-2.24c-22.08-21.96-44.28-49.59-68.95-68.48-11.1-8.5-23.5-12.52-40.03-3.9-.12-.12-.12,1.18,0,0l36.84-36.84c11.81-11.81,31.17-11.81,42.98,0l66.83,66.83c26.57,26.8-14.4,65.53-37.66,42.39Z"/>
    <path class="cls-1" d="m484.86,363.95c0-18.18-14.88-33.06-33.06-33.06s-33.06,14.88-33.06,33.06,14.88,33.06,33.06,33.06c18.18-.12,33.06-14.88,33.06-33.06Zm-2.36-99.77c-22.08,21.96-49.59,44.28-68.6,68.95-8.5,11.1-12.52,23.5-3.9,40.03-.12.12,1.18.12,0,0l-36.84-36.84c-11.81-11.81-11.81-31.17,0-42.98l66.83-66.83c26.8-26.68,65.76,14.52,42.5,37.66Z"/>
    <path class="cls-1" d="m179.54,250.84c0,18.18,14.88,33.06,33.06,33.06s33.06-14.88,33.06-33.06-14.88-33.06-33.06-33.06-33.06,14.88-33.06,33.06Zm2.24,99.77c21.96-21.96,49.59-44.28,68.6-68.95,8.5-11.1,12.63-23.5,3.9-40.03.12-.12-1.18-.12,0,0l36.84,36.84c11.81,11.81,11.81,31.17,0,42.98l-66.95,66.71c-26.68,26.8-65.53-14.4-42.39-37.55Z"/>
  </g>
</svg>