<svg xmlns="http://www.w3.org/2000/svg" xml:space="preserve" viewBox="12.7 15.9 724.6 724.6">
  <circle cx="375" cy="378.2" r="361.3" fill="#fff" fill-rule="evenodd" stroke="#3669bb" stroke-miterlimit="10" stroke-width="2" clip-rule="evenodd"/>
  <path fill="#3669bb" fill-rule="evenodd" d="M446 179.9c-22.9 0-41.5 18.7-41.5 41.5S423.2 263 446 263s41.5-18.7 41.5-41.5-18.4-41.6-41.5-41.6zm-125.3 2.9c27.6 27.6 55.6 62.3 86.7 86.1 13.9 10.7 29.5 15.8 50.3 5 .2.2.2-1.5 0 0l-46.3 46.3c-14.9 14.9-39.3 14.9-54.1 0l-84-84c-33.6-33.8 18.2-82.6 47.4-53.4zm-16.6 380.9c22.9 0 41.5-18.7 41.5-41.5 0-22.9-18.7-41.5-41.5-41.5-22.9 0-41.5 18.7-41.5 41.5-.1 23 18.4 41.5 41.5 41.5zm125.4-2.8c-27.8-27.6-55.6-62.3-86.7-86.1-13.9-10.7-29.5-15.8-50.3-5-.2-.2-.2 1.5 0 0l46.3-46.3c14.9-14.9 39.3-14.9 54.1 0l84 84c33.4 33.7-18.3 82.5-47.4 53.4zm137.6-118c0-22.9-18.7-41.5-41.5-41.5-22.9 0-41.5 18.7-41.5 41.5s18.7 41.5 41.5 41.5c22.8.1 41.5-18.6 41.5-41.5zm-2.9-125.4c-27.8 27.6-62.3 55.6-86.3 86.7-10.7 13.9-15.8 29.5-5 50.3-.2.2 1.5.2 0 0l-46.3-46.3c-14.9-14.9-14.9-39.3 0-54.1l84-84c33.8-33.6 82.8 18.3 53.6 47.4zm-381.1-16.8c0 22.9 18.7 41.5 41.5 41.5s41.5-18.7 41.5-41.5-18.7-41.5-41.5-41.5-41.5 18.7-41.5 41.5zm2.8 125.4c27.6-27.6 62.3-55.6 86.3-86.7 10.7-13.9 15.8-29.5 5-50.3.2-.2-1.5-.2 0 0l46.3 46.3c14.9 14.9 14.9 39.3 0 54.1l-84.2 83.9c-33.7 33.7-82.5-18.1-53.4-47.3z" class="st1"/>
</svg>