<svg xmlns="http://www.w3.org/2000/svg" fill="none" viewBox="0 0 2000 395">
<path d="M469.099 102.76L418.588 171.516L276.419 157.241V157.401L140.992 142.805L184.761 81.4808L353.63 101.263L407.405 25.182L150.356 0L0 209.797L35.3149 287.963L85.8259 219.207L227.995 233.482V233.322L363.422 247.918L319.493 309.242L150.784 289.3L97.0089 365.541L354.059 390.723L504.414 180.926L469.099 102.76Z" fill="#3669BB"/>
<path d="M681.417 232.894V386.553H595.751V4.33069H901.065V74.4769H681.417V162.748H889.721V232.894H681.417Z" fill="#3669BB"/>
<path d="M1239.02 245.672C1239.02 291.385 1223.66 327.687 1192.95 354.634C1162.23 381.58 1120.82 395 1068.65 395C1016.48 395 975.815 382.061 946.439 355.97C917.064 329.933 902.456 293.898 902.456 247.864C902.456 218.244 909.144 192.153 922.896 169.698C936.433 147.189 955.963 129.813 981.593 117.302C1007.06 104.792 1037.35 98.5361 1072.34 98.5361C1124.51 98.5361 1165.34 111.475 1194.66 137.405C1224.41 163.175 1239.02 199.211 1239.02 245.672ZM1156.62 246.741C1156.62 218.886 1149.18 197.447 1134.41 182.262C1119.64 167.078 1098.51 159.486 1070.95 159.486C1043.82 159.486 1022.69 167.239 1007.76 182.583C992.723 197.928 985.232 219.367 985.232 246.741C985.232 274.597 992.67 296.036 1007.44 311.22C1022.21 326.404 1043.18 333.996 1070.31 333.996C1097.44 333.996 1118.57 326.404 1133.77 311.22C1149.02 296.036 1156.62 274.597 1156.62 246.741Z" fill="#3669BB"/>
<path d="M1269.14 386.392V4.33069H1349.03V386.553H1269.14V386.392Z" fill="#3669BB"/>
<path d="M1627.48 386.392L1526.73 240.326L1472.68 280.531V386.553H1392.8V4.33069H1472.68V205.039L1602.28 107.091H1705.71L1585.75 197.019L1718.07 386.553H1627.48V386.392Z" fill="#3669BB"/>
<path d="M1918.19 187.93C1914.33 176.167 1906.58 167.506 1895.07 161.999C1883.62 156.492 1867.52 153.659 1846.81 153.659C1802.56 153.659 1780.35 163.336 1780.35 182.53C1780.35 190.443 1784.53 196.217 1792.71 200.227C1800.9 204.076 1816.68 207.979 1839.8 211.401L1876.77 216.747C1909.25 221.345 1934.29 227.334 1951.74 234.605C1969.18 241.876 1981.7 251.125 1988.98 262.46C1996.25 273.634 2000 287.909 2000 305.018C2000 334.638 1987.64 356.986 1963.03 372.17C1938.41 387.354 1901.92 394.947 1853.82 394.947C1804.97 394.947 1767.4 386.927 1741.29 370.834C1715.18 354.741 1700.04 330.361 1695.7 297.587H1772.33C1778.43 324.373 1805.13 337.792 1852.64 337.792C1877.2 337.792 1895.13 335.386 1906.15 330.788C1917.17 326.19 1922.68 318.705 1922.68 308.28C1922.68 300.367 1918.08 294.432 1908.98 290.102C1899.89 285.771 1883.67 282.082 1860.56 278.927L1826.26 274.169C1781.58 267.486 1750.28 257.327 1732.25 243.961C1714.22 230.541 1705.12 210.759 1705.12 184.241C1705.12 157.134 1717.48 136.015 1742.36 121.098C1767.24 106.075 1801.97 98.5896 1846.54 98.5896C1889.77 98.5896 1923.11 105.166 1946.65 118.104C1970.2 131.203 1985.71 151.627 1993.31 179.429L1918.19 187.93Z" fill="#3669BB"/>
<path d="M1525.87 35.6077V61.5383H1520.68V5.6673H1561.93V10.1584H1525.87V31.1701H1560.01V35.6612H1525.87V35.6077Z" fill="#3669BB"/>
<path d="M1587.99 61.4848V5.6673H1593.18V61.4848H1587.99Z" fill="#3669BB"/>
<path d="M1670.07 61.4848L1629.68 12.9385V61.4848H1624.48V5.6673H1629.68L1670.07 54.2136V5.6673H1675.26V61.4848H1670.07Z" fill="#3669BB"/>
<path d="M1754.45 61.4848L1746.27 44.5364H1714.06L1705.87 61.4848H1700.36L1727.49 5.6673H1732.84L1759.97 61.4848H1754.45ZM1730.16 11.1742L1716.14 40.2057H1744.02L1730.16 11.1742Z" fill="#3669BB"/>
<path d="M1830.76 61.4848L1790.36 12.9385V61.4848H1785.17V5.6673H1790.36L1830.76 54.2136V5.6673H1835.95V61.4848H1830.76Z" fill="#3669BB"/>
<path d="M1920.86 43.4671C1919.85 49.7225 1917.01 54.4809 1912.19 57.9027C1907.43 61.3245 1901.33 62.9819 1893.84 62.9819C1887.9 62.9819 1882.66 61.8057 1878.22 59.5601C1873.72 57.1542 1870.3 53.8928 1867.78 49.4552C1865.27 44.9642 1864.04 39.778 1864.04 33.8434C1864.04 28.0157 1865.21 22.99 1867.62 18.4989C1870.03 14.0079 1873.45 10.5861 1877.9 8.07324C1882.39 5.56039 1887.58 4.33069 1893.68 4.33069C1900.69 4.33069 1906.36 5.82771 1910.8 8.92868C1915.3 12.0297 1918.24 16.5207 1919.9 22.4554L1914.82 23.2039C1913.16 18.2851 1910.64 14.5425 1907.22 12.3504C1903.79 9.94451 1899.19 8.92868 1893.52 8.92868C1888.76 8.92868 1884.42 9.94452 1880.84 11.9227C1877.25 13.8475 1874.42 16.6811 1872.33 20.5841C1870.24 24.3266 1869.33 28.7642 1869.33 34.0038C1869.33 41.7562 1871.58 47.6909 1875.92 52.1819C1880.25 56.673 1886.19 58.7581 1893.79 58.7581C1899.89 58.7581 1904.81 57.5819 1908.4 55.0156C1912.14 52.5027 1914.33 48.7602 1915.4 43.8414H1920.76V43.4671H1920.86Z" fill="#3669BB"/>
<path d="M1948.9 61.4848V5.6673H1992.24V10.1584H1954.09V30.582H1990.32V35.0731H1954.09V57.2611H1993.42L1992.4 61.7522L1948.9 61.4848Z" fill="#3669BB"/>
</svg>