<svg xmlns="http://www.w3.org/2000/svg" fill="none" viewBox="0 0 589.2 588.95">
  <g clip-path="url(#element)">
    <path fill="#fff" fill-rule="evenodd" d="M400.21 9.02c-34.02 0-61.8 27.78-61.8 61.8 0 34.02 27.78 61.8 61.8 61.8 34.02 0 61.8-27.78 61.8-61.8 0-34.02-27.5-61.8-61.8-61.8Zm-186.52 4.25c41.1 41.1 82.77 92.69 128.98 128.13 20.69 15.87 43.94 23.53 74.84 7.37.28.28.28-2.27 0 0l-68.88 68.88c-22.11 22.11-58.39 22.11-80.51 0L143.11 92.64C93.22 42.47 170.32-30.1 213.69 13.27Zm-24.67 566.66c34.02 0 61.8-27.78 61.8-61.8 0-34.02-27.78-61.8-61.8-61.8-34.02 0-61.8 27.78-61.8 61.8 0 34.3 27.5 61.8 61.8 61.8Zm186.52-4.25c-41.39-41.1-82.77-92.69-128.98-128.13-20.69-15.87-43.94-23.53-74.84-7.37-.28 2.27-.28-.28 0 0l68.88-68.88c22.11-22.11 58.39-22.11 80.51 0l125.01 125.01c49.61 50.17-27.21 122.74-70.58 79.37Zm204.67-175.47c0-34.02-27.78-61.8-61.8-61.8-34.02 0-61.8 27.78-61.8 61.8 0 34.02 27.78 61.8 61.8 61.8 34.02 0 61.8-27.78 61.8-61.8Zm-4.25-186.52c-41.39 41.1-92.69 82.77-128.41 128.98-15.87 20.69-23.53 43.94-7.37 74.84 2.27.28-.28.28 0 0l-68.88-68.88c-22.11-22.11-22.11-58.39 0-80.51l125.01-125.01c50.17-49.89 123.03 27.21 79.65 70.58ZM9.02 188.74c0 34.02 27.78 61.8 61.8 61.8 34.02 0 61.8-27.78 61.8-61.8 0-34.02-27.78-61.8-61.8-61.8-34.02 0-61.8 27.78-61.8 61.8Zm4.25 186.52c41.1-41.1 92.69-82.77 128.41-128.98 15.87-20.69 23.53-43.94 7.37-74.84.28-.28-2.27-.28 0 0l68.88 68.88c22.11 22.11 22.11 58.39 0 80.51L92.64 445.56c-50.17 50.17-122.74-26.93-79.37-70.3Z" clip-rule="evenodd"/>
  </g>
  <defs>
    <clipPath id="element">
      <path fill="#fff" d="M0 0h589.2v588.95H0z"/>
    </clipPath>
  </defs>
</svg>