<svg xmlns="http://www.w3.org/2000/svg" viewBox="0 0 629.88 179.42"><defs><style>.cls-1{fill-rule:evenodd;}</style></defs><g id="Livello_2" data-name="Livello 2"><g id="Livello_1-2" data-name="Livello 1"><path class="cls-1" d="M65.07,4C77.63,16.6,90.32,32.31,104.39,43.12c6.29,4.82,13.4,7.13,22.8,2.21.11.05.12-.72,0,0L106.25,66.27a17.39,17.39,0,0,1-24.52,0L43.67,28.21C28.41,12.94,51.86-9.17,65.07,4Zm56.82-1.3a18.83,18.83,0,1,0,18.82,18.82A18.83,18.83,0,0,0,121.89,2.74Z"/><path class="cls-1" d="M65.07,4C77.63,16.6,90.32,32.31,104.39,43.12c6.29,4.82,13.4,7.13,22.8,2.21.11.05.12-.72,0,0l-.66.66a68.05,68.05,0,0,1-29.76,6.8,68.31,68.31,0,0,1-57.3-31.08C34.6,7.58,53.66-7.37,65.07,4Zm56.82-1.3a18.83,18.83,0,1,0,18.82,18.82A18.83,18.83,0,0,0,121.89,2.74Z"/><path class="cls-1" d="M114.35,175.38C101.78,162.81,89.09,147.11,75,136.3c-6.28-4.82-13.39-7.13-22.79-2.21-.11-.05-.12.72,0,0l20.94-20.94a17.38,17.38,0,0,1,24.51,0l38.07,38.06c15.26,15.27-8.2,37.37-21.4,24.17Zm-56.83,1.3A18.83,18.83,0,1,0,38.7,157.86,18.83,18.83,0,0,0,57.52,176.68Z"/><path class="cls-1" d="M114.35,175.38C101.78,162.81,89.09,147.11,75,136.3c-6.28-4.82-13.39-7.13-22.79-2.21-.11-.05-.12.72,0,0l.66-.66a68.4,68.4,0,0,1,87.05,24.28c4.87,14.12-14.18,29.08-25.59,17.67Zm-56.83,1.3A18.83,18.83,0,1,0,38.7,157.86,18.83,18.83,0,0,0,57.52,176.68Z"/><path class="cls-1" d="M175.38,65.07c-12.57,12.56-28.27,25.25-39.08,39.32-4.83,6.29-7.14,13.4-2.21,22.8-.05.11.72.12,0,0l-21-20.94a17.4,17.4,0,0,1,0-24.51l38.07-38.07c15.26-15.26,37.37,8.19,24.17,21.4Zm1.3,56.82a18.83,18.83,0,1,0-18.82,18.83A18.83,18.83,0,0,0,176.68,121.89Z"/><path class="cls-1" d="M175.38,65.07c-12.57,12.56-28.27,25.25-39.08,39.32-4.83,6.29-7.14,13.4-2.21,22.8-.05.11.72.12,0,0l-.66-.66a68.37,68.37,0,0,1,24.28-87.06c14.12-4.87,29.08,14.19,17.67,25.6Zm1.3,56.82a18.83,18.83,0,1,0-18.82,18.83A18.83,18.83,0,0,0,176.68,121.89Z"/><path class="cls-1" d="M4,114.35C16.6,101.78,32.31,89.1,43.11,75c4.83-6.29,7.14-13.4,2.22-22.8.05-.11-.72-.12,0,0L66.27,73.17a17.38,17.38,0,0,1,0,24.51L28.21,135.75C12.94,151-9.17,127.56,4,114.35ZM2.74,57.53A18.82,18.82,0,1,0,21.56,38.7,18.83,18.83,0,0,0,2.74,57.53Z"/><path class="cls-1" d="M4,114.35C16.6,101.78,32.31,89.1,43.11,75c4.83-6.29,7.14-13.4,2.22-22.8.05-.11-.72-.12,0,0l.66.66a68,68,0,0,1,6.8,29.75,68.28,68.28,0,0,1-31.08,57.3C7.58,144.82-7.37,125.76,4,114.35ZM2.74,57.53A18.82,18.82,0,1,0,21.56,38.7,18.83,18.83,0,0,0,2.74,57.53Z"/><path d="M218.25,106.79a5,5,0,0,1-5-5.05V36.05a4.81,4.81,0,0,1,1.45-3.63A5,5,0,0,1,218.25,31h43.86a5,5,0,0,1,3.59,1.31,4.58,4.58,0,0,1,1.36,3.44,4.31,4.31,0,0,1-1.36,3.3,5.07,5.07,0,0,1-3.59,1.26H223.3V63.9h27.84a5,5,0,0,1,3.59,1.31,4.81,4.81,0,0,1,0,6.7,5,5,0,0,1-3.59,1.31H223.3v28.52a5,5,0,0,1-5.05,5.05Z"/><path d="M336.27,107.76a41.48,41.48,0,0,1-15.62-2.86,35.56,35.56,0,0,1-12.18-8.06,36.58,36.58,0,0,1-7.91-12.32,42.45,42.45,0,0,1-2.81-15.67,42.07,42.07,0,0,1,2.81-15.62A36.9,36.9,0,0,1,308.47,41a35.53,35.53,0,0,1,12.18-8.05,43.95,43.95,0,0,1,31.19,0A35.76,35.76,0,0,1,372,53.23a42.07,42.07,0,0,1,2.81,15.62A42.45,42.45,0,0,1,372,84.52a35.73,35.73,0,0,1-20.14,20.38A41.11,41.11,0,0,1,336.27,107.76Zm0-9.12a29,29,0,0,0,11.6-2.28A27.76,27.76,0,0,0,363,80.59a34,34,0,0,0,0-23.48,27.79,27.79,0,0,0-6-9.46,27.4,27.4,0,0,0-9.16-6.26,31.26,31.26,0,0,0-23.19,0,27,27,0,0,0-9.13,6.26,28.87,28.87,0,0,0-6,9.46,33.27,33.27,0,0,0,0,23.48,28.87,28.87,0,0,0,6,9.46,27.4,27.4,0,0,0,9.13,6.31A28.92,28.92,0,0,0,336.27,98.64Z"/><path d="M416.84,106.79a4.74,4.74,0,0,1-3.55-1.46,5,5,0,0,1-1.4-3.59V36.05a4.88,4.88,0,0,1,1.45-3.59,4.77,4.77,0,0,1,3.5-1.45,5,5,0,0,1,5,5V96.7H457a5,5,0,1,1,0,10.09Z"/><path d="M500.51,106.79a5,5,0,0,1-3.55-1.46,4.79,4.79,0,0,1-1.5-3.59V36.05a4.81,4.81,0,0,1,1.5-3.59A5,5,0,0,1,500.51,31a5,5,0,0,1,5,5V65.16l32.12-32.11a7.51,7.51,0,0,1,2.13-1.6,4.8,4.8,0,0,1,2-.44,4,4,0,0,1,3.49,1.45,4.53,4.53,0,0,1,.78,3.45,6.65,6.65,0,0,1-1.84,3.64L519.52,64.39l25.23,34.35a5.05,5.05,0,0,1,1,3.54,5.51,5.51,0,0,1-1.36,3.2,4,4,0,0,1-3.1,1.31,4.73,4.73,0,0,1-4.17-2.14L512.54,71.37l-7,7v23.38a5,5,0,0,1-5,5.05Z"/><path d="M602.61,107.76a36.16,36.16,0,0,1-11.84-1.94,30.76,30.76,0,0,1-9.8-5.43,21.39,21.39,0,0,1-6.11-8.06,3.82,3.82,0,0,1,0-3.78,4.79,4.79,0,0,1,3.44-2.23,4.86,4.86,0,0,1,3.45.53,6,6,0,0,1,2.57,2.76,12.57,12.57,0,0,0,3.83,4.47,22,22,0,0,0,6.45,3.3,25.08,25.08,0,0,0,8,1.26,24.55,24.55,0,0,0,8.59-1.46A15.22,15.22,0,0,0,617.55,93,10,10,0,0,0,620,86.12a12.78,12.78,0,0,0-4-9.22q-4-4.07-13.24-5-12-1.17-18.92-7.08a18.55,18.55,0,0,1-6.89-14.66,16.72,16.72,0,0,1,3.59-10.86,22.29,22.29,0,0,1,9.75-6.8A38.63,38.63,0,0,1,604,30.14a29.46,29.46,0,0,1,10.33,1.65A24.27,24.27,0,0,1,622,36.35a29.81,29.81,0,0,1,5.72,6.88,6.07,6.07,0,0,1,1.12,4,4,4,0,0,1-1.89,3,4.54,4.54,0,0,1-4,.49,5.53,5.53,0,0,1-3.21-2.53A17.16,17.16,0,0,0,616,43.43a17,17,0,0,0-5.24-3.06,20.44,20.44,0,0,0-7.08-1.11,23.19,23.19,0,0,0-12,2.67,9.12,9.12,0,0,0-4.86,8.49A11.18,11.18,0,0,0,588.3,56a12,12,0,0,0,5.53,4.61q4,1.95,11.59,2.72,11.55,1.17,18,7t6.46,15.48a19.38,19.38,0,0,1-2.28,9.61,21.08,21.08,0,0,1-6.12,6.84,27,27,0,0,1-8.73,4.12A37.64,37.64,0,0,1,602.61,107.76Z"/><path d="M213.14,156.09a1.54,1.54,0,0,1-1.12-.47,1.52,1.52,0,0,1-.48-1.13V125.67a1.52,1.52,0,0,1,.46-1.15,1.54,1.54,0,0,1,1.14-.45h19.23a1.58,1.58,0,0,1,1.15.43,1.49,1.49,0,0,1,.45,1.13,1.44,1.44,0,0,1-.45,1.06,1.55,1.55,0,0,1-1.15.45H214.74v11.32h12.84a1.54,1.54,0,0,1,1.14.45,1.51,1.51,0,0,1,.45,1.11,1.52,1.52,0,0,1-.45,1.11,1.54,1.54,0,0,1-1.14.45H214.74v12.91a1.57,1.57,0,0,1-.45,1.13A1.53,1.53,0,0,1,213.14,156.09Z"/><path d="M279.35,156.09a1.54,1.54,0,0,1-1.14-.45,1.52,1.52,0,0,1-.46-1.15V125.67a1.52,1.52,0,0,1,.46-1.15,1.6,1.6,0,0,1,2.74,1.15v28.82a1.54,1.54,0,0,1-1.6,1.6Z"/><path d="M328.79,156.09a1.54,1.54,0,0,1-1.59-1.6V125.67a1.54,1.54,0,0,1,1.59-1.6,1.54,1.54,0,0,1,1.23.57l19.6,25.75V125.67a1.55,1.55,0,0,1,.45-1.15,1.57,1.57,0,0,1,1.15-.45,1.59,1.59,0,0,1,1.13.45,1.53,1.53,0,0,1,.47,1.15v28.82a1.53,1.53,0,0,1-.47,1.15,1.59,1.59,0,0,1-1.13.45,1.92,1.92,0,0,1-.66-.12,1.18,1.18,0,0,1-.53-.41l-19.64-25.75v24.68a1.49,1.49,0,0,1-.47,1.15A1.57,1.57,0,0,1,328.79,156.09Z"/><path d="M397.3,156.09a1.4,1.4,0,0,1-1.35-.78,1.64,1.64,0,0,1-.08-1.52l12.05-28.61a1.58,1.58,0,0,1,1.56-1.11,1.55,1.55,0,0,1,1.51,1.11l12.1,28.66a1.49,1.49,0,0,1-.1,1.51,1.51,1.51,0,0,1-1.34.74,1.58,1.58,0,0,1-.88-.25,1.75,1.75,0,0,1-.63-.73l-11.28-27.35h1.27l-11.35,27.35a1.56,1.56,0,0,1-1.48,1Zm2.71-7.63,1.23-2.74h16.64l1.23,2.74Z"/><path d="M467.53,156.09a1.54,1.54,0,0,1-1.6-1.6V125.67a1.6,1.6,0,0,1,2.83-1l19.6,25.75V125.67a1.51,1.51,0,0,1,.45-1.15,1.54,1.54,0,0,1,1.14-.45,1.57,1.57,0,0,1,1.13.45,1.49,1.49,0,0,1,.47,1.15v28.82a1.49,1.49,0,0,1-.47,1.15,1.57,1.57,0,0,1-1.13.45,1.91,1.91,0,0,1-.65-.12,1.15,1.15,0,0,1-.54-.41l-19.63-25.75v24.68a1.5,1.5,0,0,1-.48,1.15A1.56,1.56,0,0,1,467.53,156.09Z"/><path d="M552.19,156.5a15.24,15.24,0,0,1-6.22-1.27,15.91,15.91,0,0,1-5.08-3.55,17,17,0,0,1-3.44-18,16,16,0,0,1,3.4-5.22,16.23,16.23,0,0,1,5.08-3.55,15.18,15.18,0,0,1,6.26-1.29,16.09,16.09,0,0,1,5.37.86,15.16,15.16,0,0,1,4.67,2.75,1,1,0,0,1,.43.67,1.25,1.25,0,0,1-.1.74,1,1,0,0,1-.49.51.76.76,0,0,1-.41.5,1.35,1.35,0,0,1-.76.12,1.57,1.57,0,0,1-.84-.37,10.86,10.86,0,0,0-3.49-2.07,13,13,0,0,0-4.38-.68,11.83,11.83,0,0,0-5,1.07,13.36,13.36,0,0,0-4.08,2.91,13.83,13.83,0,0,0-2.76,4.26,13.29,13.29,0,0,0-1,5.13,13.47,13.47,0,0,0,1,5.21,13.83,13.83,0,0,0,2.76,4.26,13.13,13.13,0,0,0,4.08,2.89,12,12,0,0,0,5,1.05,12.31,12.31,0,0,0,4.26-.74,14.12,14.12,0,0,0,3.81-2.13,1.26,1.26,0,0,1,1-.33,1.65,1.65,0,0,1,1,.49,1.46,1.46,0,0,1,.41,1.07,1.59,1.59,0,0,1-.1.59,1.8,1.8,0,0,1-.35.55,12,12,0,0,1-4.67,2.73A18.23,18.23,0,0,1,552.19,156.5Z"/><path d="M609.05,156.09a1.54,1.54,0,0,1-1.6-1.6V125.67a1.54,1.54,0,0,1,1.6-1.6h19.23a1.59,1.59,0,0,1,1.12.43,1.44,1.44,0,0,1,.48,1.13,1.4,1.4,0,0,1-.48,1.06,1.56,1.56,0,0,1-1.12.45H610.65v11.32h12.83a1.57,1.57,0,0,1,1.15.45,1.51,1.51,0,0,1,.45,1.11,1.52,1.52,0,0,1-.45,1.11,1.57,1.57,0,0,1-1.15.45H610.65V153h17.63a1.57,1.57,0,0,1,1.12.46,1.4,1.4,0,0,1,.48,1.06,1.44,1.44,0,0,1-.48,1.13,1.59,1.59,0,0,1-1.12.43Z"/></g></g></svg>