<?xml version="1.0" encoding="UTF-8"?>
<svg id="Livello_1" data-name="Livello 1" xmlns="http://www.w3.org/2000/svg" viewBox="0 0 1504.5 618.99">
  <defs>
    <style>
      .cls-1, .cls-2 {
        fill: #3669bb;
      }

      .cls-2 {
        fill-rule: evenodd;
      }
    </style>
  </defs>
  <path class="cls-2" d="m305.17,115.58c-23.82,0-43.28,19.46-43.28,43.28s19.46,43.28,43.28,43.28,43.28-19.46,43.28-43.28-19.26-43.28-43.28-43.28Zm-130.63,2.98c28.79,28.79,57.97,64.92,90.33,89.74,14.49,11.12,30.77,16.48,52.41,5.16.2.2.2-1.59,0,0l-48.24,48.24c-15.49,15.49-40.9,15.49-56.38,0l-87.55-87.55c-34.94-35.14,19.06-85.96,49.43-55.59Z"/>
  <path class="cls-2" d="m157.26,515.41c23.82,0,43.28-19.46,43.28-43.28s-19.46-43.28-43.28-43.28-43.28,19.46-43.28,43.28c0,24.02,19.26,43.28,43.28,43.28Zm130.63-2.98c-28.99-28.79-57.97-64.92-90.33-89.74-14.49-11.12-30.77-16.48-52.41-5.16-.2-.2-.2,1.59,0,0l48.24-48.24c15.49-15.49,40.9-15.49,56.38,0l87.55,87.55c34.74,35.14-19.06,85.96-49.43,55.59Z"/>
  <path class="cls-2" d="m431.23,389.55c0-23.82-19.46-43.28-43.28-43.28s-43.28,19.46-43.28,43.28,19.46,43.28,43.28,43.28,43.28-19.46,43.28-43.28Zm-2.98-130.63c-28.99,28.79-64.92,57.97-89.93,90.33-11.12,14.49-16.48,30.77-5.16,52.41-.2.2,1.59.2,0,0l-48.24-48.24c-15.49-15.49-15.49-40.9,0-56.38l87.55-87.55c35.14-34.94,86.16,19.06,55.79,49.43Z"/>
  <path class="cls-2" d="m31.2,241.44c0,23.82,19.46,43.28,43.28,43.28s43.28-19.46,43.28-43.28-19.46-43.28-43.28-43.28-43.28,19.46-43.28,43.28Zm2.98,130.63c28.79-28.79,64.92-57.97,89.93-90.33,11.12-14.49,16.48-30.77,5.16-52.41.2-.2-1.59-.2,0,0l48.24,48.24c15.49,15.49,15.49,40.9,0,56.38l-87.75,87.35c-35.14,35.14-85.96-18.86-55.59-49.24Z"/>
  <path class="cls-1" d="m526.73,354.8c-3.18,0-5.96-1.19-8.34-3.38-2.18-2.18-3.38-4.96-3.38-8.34v-151.08c0-3.38,1.19-6.15,3.38-8.34s4.96-3.18,8.34-3.18h100.85c3.38,0,6.15.99,8.34,2.98,1.99,1.99,3.18,4.76,3.18,7.94s-.99,5.56-3.18,7.54-4.76,2.98-8.34,2.98h-89.34v54.2h64.13c3.38,0,6.15.99,8.34,2.98,1.99,1.99,3.18,4.57,3.18,7.74s-.99,5.76-3.18,7.74-4.76,2.98-8.34,2.98h-63.93v65.51c0,3.18-1.19,5.96-3.38,8.34-2.38,2.18-4.96,3.38-8.34,3.38Z"/>
  <path class="cls-1" d="m798.12,335.94c9.73,0,18.46-1.79,26.6-5.16,8.14-3.57,15.09-8.34,21.04-14.49,5.96-6.15,10.52-13.5,13.7-21.84,3.18-8.34,4.76-17.27,4.76-27s-1.59-18.66-4.76-27c-3.18-8.34-7.74-15.68-13.7-21.84s-12.9-10.92-21.04-14.49c-8.14-3.38-17.07-5.16-26.6-5.16s-18.46,1.79-26.6,5.16c-8.14,3.37-15.09,8.14-21.04,14.49-5.96,6.15-10.52,13.5-13.7,21.84s-4.96,17.27-4.96,27,1.59,18.66,4.96,27c3.18,8.34,7.94,15.49,13.7,21.84,5.96,6.15,12.9,10.92,21.04,14.49,8.14,3.38,16.88,5.16,26.6,5.16Zm0,21.04c-13.1,0-25.01-2.18-35.93-6.55-10.92-4.37-20.25-10.52-27.99-18.46s-13.9-17.47-18.26-28.39-6.55-23.03-6.55-35.93,2.18-25.01,6.55-35.93,10.32-20.25,18.26-28.19c7.74-7.94,17.07-14.1,27.99-18.46s22.83-6.55,35.93-6.55,25.01,2.18,35.74,6.55,20.05,10.52,27.99,18.46,13.9,17.27,18.26,28.19,6.55,22.83,6.55,35.93-2.18,25.01-6.55,35.93c-4.37,10.92-10.32,20.45-18.26,28.39s-17.27,14.1-27.99,18.46c-10.72,4.37-22.63,6.55-35.74,6.55Z"/>
  <path class="cls-1" d="m983.35,354.8c-3.18,0-5.96-1.19-8.14-3.38s-3.18-4.96-3.18-8.34v-151.08c0-3.18,1.19-5.96,3.38-8.34,2.18-2.18,4.96-3.38,7.94-3.38,3.18,0,5.96,1.19,8.34,3.38,2.18,2.18,3.38,4.96,3.38,8.34v139.37h80.8c3.18,0,5.96,1.19,8.34,3.38,2.18,2.18,3.38,4.96,3.38,8.34,0,3.18-1.19,5.96-3.38,8.34-2.18,2.18-4.96,3.38-8.34,3.38h-92.51Z"/>
  <path class="cls-1" d="m1175.72,354.8c-3.18,0-5.76-1.19-8.14-3.38s-3.38-4.96-3.38-8.34v-151.08c0-3.18,1.19-5.96,3.38-8.34,2.38-2.18,4.96-3.38,8.14-3.38s5.96,1.19,8.34,3.38c2.18,2.18,3.38,4.96,3.38,8.34v66.9l73.85-73.85c1.79-1.79,3.38-2.98,4.96-3.77,1.39-.6,2.98-.99,4.76-.99,3.77,0,6.35,1.19,7.94,3.38s2.18,4.96,1.79,7.94-1.79,5.76-4.17,8.34l-57.18,57.38,57.97,79.01c1.79,2.58,2.58,5.16,2.18,8.14-.2,2.98-1.39,5.36-3.18,7.35s-4.17,2.98-7.15,2.98c-4.17,0-7.35-1.59-9.53-4.96l-56.38-76.43-16.08,16.08v53.6c0,3.18-1.19,5.96-3.38,8.34-2.18,2.18-4.76,3.37-8.14,3.37Z"/>
  <path class="cls-1" d="m1410.58,356.99c-9.53,0-18.66-1.59-27.2-4.57s-16.08-7.15-22.63-12.51c-6.35-5.36-11.12-11.51-14.1-18.46-1.39-3.18-1.39-5.96.2-8.74,1.59-2.58,4.17-4.37,7.94-5.16,2.58-.6,5.36-.2,7.94,1.19s4.57,3.57,5.96,6.35c1.79,3.77,4.76,7.15,8.74,10.32,4.17,3.18,9.13,5.56,14.89,7.54s11.91,2.98,18.26,2.98c7.15,0,13.7-1.19,19.65-3.38s10.92-5.56,14.69-9.73,5.56-9.53,5.56-15.68c0-7.94-3.18-14.89-9.33-21.24-6.15-6.15-16.28-10.13-30.38-11.51-18.46-1.79-32.96-7.15-43.48-16.28-10.52-9.13-15.88-20.25-15.88-33.75,0-9.73,2.78-18.07,8.34-25.01,5.56-6.75,12.9-12.11,22.43-15.68s20.05-5.36,31.57-5.36c9.13,0,17.07,1.19,23.82,3.77s12.71,5.96,17.67,10.52c5.16,4.37,9.53,9.73,13.1,15.88,2.18,3.18,2.98,6.35,2.58,9.33s-1.79,5.16-4.37,6.75c-2.78,1.79-5.96,2.18-9.13,1.19s-5.76-2.98-7.35-5.76c-2.38-4.37-5.36-7.94-8.74-10.92s-7.35-5.36-12.11-6.95c-4.57-1.79-10.13-2.58-16.28-2.58-10.92-.2-20.25,1.99-27.6,6.15-7.35,4.17-11.12,10.72-11.12,19.46,0,4.37,1.19,8.74,3.37,12.9,2.38,4.17,6.55,7.54,12.71,10.52s15.09,4.96,26.6,6.35c17.67,1.79,31.57,7.15,41.29,16.08,9.93,8.93,14.89,20.85,14.89,35.54,0,8.54-1.79,15.88-5.16,22.04-3.57,6.35-8.14,11.51-14.1,15.68-5.96,4.17-12.51,7.35-20.05,9.53-7.54,2.18-15.29,3.18-23.23,3.18Z"/>
  <path class="cls-1" d="m515.01,468.16c-.99,0-1.79-.4-2.58-1.19s-.99-1.59-.99-2.58v-66.31c0-.99.4-1.99.99-2.58s1.59-.99,2.58-.99h44.27c.99,0,1.99.4,2.58.99s.99,1.59.99,2.58-.4,1.79-.99,2.38c-.6.6-1.59.99-2.58.99h-40.5v26.01h29.58c.99,0,1.99.4,2.58.99s.99,1.59.99,2.58-.4,1.79-.99,2.58c-.6.6-1.59.99-2.58.99h-29.58v29.78c0,.99-.4,1.79-.99,2.58-.79.79-1.79,1.19-2.78,1.19Z"/>
  <path class="cls-1" d="m667.29,468.16c-.99,0-1.99-.4-2.58-.99s-.99-1.59-.99-2.58v-66.31c0-.99.4-1.99.99-2.58s1.59-.99,2.58-.99,1.99.4,2.58.99.99,1.59.99,2.58v66.31c0,.99-.4,1.99-.99,2.58s-1.59.99-2.58.99Z"/>
  <path class="cls-1" d="m780.85,468.16c-.99,0-1.99-.4-2.58-.99s-.99-1.59-.99-2.58v-66.31c0-.99.4-1.99.99-2.58s1.59-.99,2.58-.99c1.19,0,1.99.4,2.78,1.39l45.07,59.16v-56.78c0-.99.4-1.99.99-2.58s1.59-.99,2.58-.99,1.79.4,2.58.99.99,1.59.99,2.58v66.31c0,.99-.4,1.99-.99,2.58-.79.79-1.59.99-2.58.99-.6,0-.99-.2-1.59-.4s-.99-.6-1.19-.99l-44.87-59.36v56.78c0,.99-.4,1.99-.99,2.58-.79.79-1.79,1.19-2.78,1.19Z"/>
  <path class="cls-1" d="m944.63,450.49l2.78-6.35h38.32l2.78,6.35h-43.87Zm-6.15,17.67c-1.39,0-2.58-.6-3.18-1.79-.6-1.19-.6-2.38-.2-3.57l27.79-65.71c.6-1.79,1.79-2.58,3.57-2.58,1.59,0,2.78.79,3.57,2.58l27.79,65.91c.6,1.19.4,2.38-.2,3.57-.79,1.19-1.79,1.79-2.98,1.79-.79,0-1.39-.2-1.99-.6-.6-.4-.99-.99-1.39-1.79l-26.01-62.93h2.98l-26.21,62.93c-.4.79-.79,1.39-1.39,1.79-.79.2-1.39.4-2.18.4Z"/>
  <path class="cls-1" d="m1099.88,468.16c-.99,0-1.99-.4-2.58-.99s-.99-1.59-.99-2.58v-66.31c0-.99.4-1.99.99-2.58s1.59-.99,2.58-.99c1.19,0,1.99.4,2.78,1.39l45.07,59.16v-56.78c0-.99.4-1.99.99-2.58s1.59-.99,2.58-.99,1.79.4,2.58.99.99,1.59.99,2.58v66.31c0,.99-.4,1.99-.99,2.58-.79.79-1.59.99-2.58.99-.6,0-.99-.2-1.59-.4s-.99-.6-1.19-.99l-45.07-59.16v56.78c0,.99-.4,1.99-.99,2.58s-1.59.99-2.58.99Z"/>
  <path class="cls-1" d="m1294.64,468.96c-5.16,0-9.93-.99-14.29-2.98s-8.34-4.57-11.71-8.14c-3.38-3.57-5.96-7.54-7.94-12.11-1.99-4.57-2.78-9.53-2.78-14.69s.99-9.93,2.78-14.49,4.37-8.54,7.74-12.11c3.38-3.38,7.35-6.15,11.71-8.14,4.37-1.99,9.13-2.98,14.29-2.98,4.57,0,8.74.6,12.31,1.99,3.77,1.39,7.35,3.38,10.72,6.35.6.4.79.99.99,1.59s0,1.19-.2,1.79-.6.99-1.19,1.19c-.2.6-.4.79-.99,1.19-.4.2-.99.4-1.79.2-.6,0-1.39-.4-1.99-.79-2.38-2.18-5.16-3.77-7.94-4.76-2.98-.99-6.15-1.59-10.13-1.59-4.17,0-7.94.79-11.51,2.38-3.57,1.59-6.75,3.97-9.33,6.75-2.78,2.78-4.76,6.15-6.35,9.73-1.59,3.77-2.38,7.54-2.38,11.71s.79,8.34,2.38,11.91c1.59,3.77,3.57,6.95,6.35,9.73s5.76,4.96,9.33,6.55c3.57,1.59,7.35,2.38,11.51,2.38,3.38,0,6.75-.6,9.73-1.79,3.18-1.19,5.96-2.78,8.74-4.96.79-.6,1.59-.79,2.38-.79.79.2,1.59.6,2.18,1.19s.99,1.39.99,2.38c0,.6,0,.99-.2,1.39s-.4.79-.79,1.19c-3.18,2.98-6.75,4.96-10.72,6.35-3.57,1.79-7.74,2.38-11.91,2.38Z"/>
  <path class="cls-1" d="m1425.27,468.16c-.99,0-1.99-.4-2.58-.99s-.99-1.59-.99-2.58v-66.31c0-.99.4-1.99.99-2.58s1.59-.99,2.58-.99h44.27c.99,0,1.79.4,2.58.99s.99,1.59.99,2.58-.4,1.79-.99,2.38c-.79.6-1.59.99-2.58.99h-40.5v26.01h29.58c.99,0,1.99.4,2.58.99s.99,1.59.99,2.58-.4,1.79-.99,2.58c-.6.6-1.59.99-2.58.99h-29.58v26.21h40.5c.99,0,1.79.4,2.58.99s.99,1.59.99,2.38c0,.99-.4,1.99-.99,2.58-.79.6-1.59.99-2.58.99l-44.27.2h0Z"/>
</svg>