<svg xmlns="http://www.w3.org/2000/svg" viewBox="0 0 179.42 179.42"><defs><style>.cls-1{fill-rule:evenodd;}</style></defs><g id="Livello_2" data-name="Livello 2"><g id="Livello_1-2" data-name="Livello 1"><path class="cls-1" d="M65.07,4C77.63,16.6,90.32,32.31,104.39,43.12c6.29,4.82,13.4,7.13,22.8,2.21.11.05.12-.72,0,0L106.25,66.27a17.39,17.39,0,0,1-24.52,0L43.67,28.21C28.41,12.94,51.86-9.17,65.07,4Zm56.82-1.3a18.83,18.83,0,1,0,18.82,18.82A18.83,18.83,0,0,0,121.89,2.74Z"/><path class="cls-1" d="M65.07,4C77.63,16.6,90.32,32.31,104.39,43.12c6.29,4.82,13.4,7.13,22.8,2.21.11.05.12-.72,0,0l-.66.66a68.05,68.05,0,0,1-29.76,6.8,68.31,68.31,0,0,1-57.3-31.08C34.6,7.58,53.66-7.37,65.07,4Zm56.82-1.3a18.83,18.83,0,1,0,18.82,18.82A18.83,18.83,0,0,0,121.89,2.74Z"/><path class="cls-1" d="M114.35,175.38C101.78,162.81,89.09,147.11,75,136.3c-6.28-4.82-13.39-7.13-22.79-2.21-.11-.05-.12.72,0,0l20.94-20.94a17.38,17.38,0,0,1,24.51,0l38.07,38.06c15.26,15.27-8.2,37.37-21.4,24.17Zm-56.83,1.3A18.83,18.83,0,1,0,38.7,157.86,18.83,18.83,0,0,0,57.52,176.68Z"/><path class="cls-1" d="M114.35,175.38C101.78,162.81,89.09,147.11,75,136.3c-6.28-4.82-13.39-7.13-22.79-2.21-.11-.05-.12.72,0,0l.66-.66a68.4,68.4,0,0,1,87.05,24.28c4.87,14.12-14.18,29.08-25.59,17.67Zm-56.83,1.3A18.83,18.83,0,1,0,38.7,157.86,18.83,18.83,0,0,0,57.52,176.68Z"/><path class="cls-1" d="M175.38,65.07c-12.57,12.56-28.27,25.25-39.08,39.32-4.83,6.29-7.14,13.4-2.21,22.8-.05.11.72.12,0,0l-21-20.94a17.4,17.4,0,0,1,0-24.51l38.07-38.07c15.26-15.26,37.37,8.19,24.17,21.4Zm1.3,56.82a18.83,18.83,0,1,0-18.82,18.83A18.83,18.83,0,0,0,176.68,121.89Z"/><path class="cls-1" d="M175.38,65.07c-12.57,12.56-28.27,25.25-39.08,39.32-4.83,6.29-7.14,13.4-2.21,22.8-.05.11.72.12,0,0l-.66-.66a68.37,68.37,0,0,1,24.28-87.06c14.12-4.87,29.08,14.19,17.67,25.6Zm1.3,56.82a18.83,18.83,0,1,0-18.82,18.83A18.83,18.83,0,0,0,176.68,121.89Z"/><path class="cls-1" d="M4,114.35C16.6,101.78,32.31,89.1,43.11,75c4.83-6.29,7.14-13.4,2.22-22.8.05-.11-.72-.12,0,0L66.27,73.17a17.38,17.38,0,0,1,0,24.51L28.21,135.75C12.94,151-9.17,127.56,4,114.35ZM2.74,57.53A18.82,18.82,0,1,0,21.56,38.7,18.83,18.83,0,0,0,2.74,57.53Z"/><path class="cls-1" d="M4,114.35C16.6,101.78,32.31,89.1,43.11,75c4.83-6.29,7.14-13.4,2.22-22.8.05-.11-.72-.12,0,0l.66.66a68,68,0,0,1,6.8,29.75,68.28,68.28,0,0,1-31.08,57.3C7.58,144.82-7.37,125.76,4,114.35ZM2.74,57.53A18.82,18.82,0,1,0,21.56,38.7,18.83,18.83,0,0,0,2.74,57.53Z"/></g></g></svg>