<?xml version="1.0" encoding="UTF-8"?>
<svg id="Livello_1" data-name="Livello 1" xmlns="http://www.w3.org/2000/svg" viewBox="0 0 613.9 618.99">
  <defs>
    <style>
      .cls-1 {
        fill: #3669bb;
        fill-rule: evenodd;
      }
    </style>
  </defs>
  <path class="cls-1" d="m412.56,22.64c-34.02,0-61.8,27.78-61.8,61.8s27.78,61.8,61.8,61.8,61.8-27.78,61.8-61.8-27.5-61.8-61.8-61.8Zm-186.52,4.25c41.1,41.1,82.77,92.69,128.98,128.13,20.69,15.87,43.94,23.53,74.84,7.37.28.28.28-2.27,0,0l-68.88,68.88c-22.11,22.11-58.39,22.11-80.51,0l-125.01-125.01c-49.89-50.17,27.21-122.74,70.58-79.37Z"/>
  <path class="cls-1" d="m201.37,593.55c34.02,0,61.8-27.78,61.8-61.8s-27.78-61.8-61.8-61.8-61.8,27.78-61.8,61.8c0,34.3,27.5,61.8,61.8,61.8Zm186.52-4.25c-41.39-41.1-82.77-92.69-128.98-128.13-20.69-15.87-43.94-23.53-74.84-7.37-.28-.28-.28,2.27,0,0l68.88-68.88c22.11-22.11,58.39-22.11,80.51,0l125.01,125.01c49.61,50.17-27.21,122.74-70.58,79.37Z"/>
  <path class="cls-1" d="m592.56,413.83c0-34.02-27.78-61.8-61.8-61.8s-61.8,27.78-61.8,61.8,27.78,61.8,61.8,61.8,61.8-27.78,61.8-61.8Zm-4.25-186.52c-41.39,41.1-92.69,82.77-128.41,128.98-15.87,20.69-23.53,43.94-7.37,74.84-.28.28,2.27.28,0,0l-68.88-68.88c-22.11-22.11-22.11-58.39,0-80.51l125.01-125.01c50.17-49.89,123.03,27.21,79.65,70.58Z"/>
  <path class="cls-1" d="m21.37,202.36c0,34.02,27.78,61.8,61.8,61.8s61.8-27.78,61.8-61.8-27.78-61.8-61.8-61.8-61.8,27.78-61.8,61.8Zm4.25,186.52c41.1-41.1,92.69-82.77,128.41-128.98,15.87-20.69,23.53-43.94,7.37-74.84.28-.28-2.27-.28,0,0l68.88,68.88c22.11,22.11,22.11,58.39,0,80.51l-125.29,124.73c-50.17,50.17-122.74-26.93-79.37-70.3Z"/>
</svg>